<?xml version="1.0" encoding="UTF-8"?>
<svg id="Livello_2" data-name="Livello 2" xmlns="http://www.w3.org/2000/svg" viewBox="0 0 178.71 178.71">
  <defs>
    <style>
      .cls-1 {
        fill: - - ccurrentColor;
      }
    </style>
  </defs>
  <g id="Livello_1-2" data-name="Livello 1">
    <g>
      <path class="cls-1" d="M178.71,22.95v72.16c-10.9-6.77-27.21-5.55-40.54,4.05-1.49,1.07-2.89,2.22-4.19,3.42-3.79,3.46-6.81,7.38-8.99,11.51l-15.78,10.94c-2.31,1.59-5.49.52-6.35-2.14l-25.85-79.32c-.55-1.72-2.14-2.87-3.94-2.89l-14.95-.1c-2.87-.02-4.9,2.79-4,5.51l19.85,59.41-12.98,8.55-.25.15c-.38-4.55-1.87-8.87-4.57-12.62-1.45-2.01-3.16-3.73-5.07-5.18-.02-.02-.04-.02-.06-.04-10.84-8.15-28.28-7.38-42.39,2.79-1.49,1.07-2.89,2.22-4.19,3.42-1.64,1.51-3.14,3.1-4.47,4.76V22.95C0,10.33,10.33,0,22.95,0h132.82c12.62,0,22.95,10.33,22.95,22.95Z"/>
      <path class="cls-1" d="M178.71,142.57v13.19c0,3.52-.8,6.86-2.24,9.85-3.71,7.73-11.61,13.1-20.71,13.1H22.95c-12.62,0-22.95-10.33-22.95-22.95v-6.44c.4.36.84.71,1.28,1.05.04.02.06.04.1.06,10.86,7.94,28.13,7.09,42.11-2.98,1.45-1.05,2.81-2.14,4.07-3.31l1.53-.98,30.71-19.83,9.1,27.96c.86,2.6,3.94,3.71,6.25,2.22l26.43-17.06c.73,3.06,2.03,5.95,3.92,8.57,9.62,13.33,30.88,14.42,47.5,2.43,2.08-1.49,4-3.14,5.72-4.88Z"/>
      <path class="cls-1" d="M39.56,123.39c0,7.48-6.06,13.54-13.54,13.54h-.13c-7.48,0-13.54-6.06-13.54-13.54s6.06-13.52,13.54-13.52h.13c7.48,0,13.54,6.06,13.54,13.52Z"/>
      <path class="cls-1" d="M168.94,123.39c0,7.48-6.06,13.54-13.54,13.54s-13.52-6.06-13.52-13.54,6.04-13.52,13.52-13.52,13.54,6.06,13.54,13.52Z"/>
    </g>
  </g>
</svg>